<mxfile host="app.diagrams.net" agent="Mozilla/5.0 (Windows NT 10.0; Win64; x64) AppleWebKit/537.36 (KHTML, like Gecko) Chrome/131.0.0.0 Safari/537.36" version="26.0.4">
  <diagram name="Page-1" id="TJTmEd3iIja9EBRZ_pb_">
    <mxGraphModel dx="837" dy="962" grid="1" gridSize="10" guides="1" tooltips="1" connect="1" arrows="1" fold="1" page="1" pageScale="1" pageWidth="850" pageHeight="1100" math="0" shadow="0">
      <root>
        <mxCell id="0" />
        <mxCell id="1" parent="0" />
        <mxCell id="zUg3-L1ySZ6m3I2x4nQT-29" value="BGate" style="swimlane;whiteSpace=wrap;html=1;" vertex="1" parent="1">
          <mxGeometry x="1120" y="80" width="610" height="970" as="geometry" />
        </mxCell>
        <mxCell id="zUg3-L1ySZ6m3I2x4nQT-46" style="rounded=0;orthogonalLoop=1;jettySize=auto;html=1;exitX=1;exitY=0.5;exitDx=0;exitDy=0;entryX=0.5;entryY=0;entryDx=0;entryDy=0;endArrow=open;endFill=0;dashed=1;" edge="1" parent="zUg3-L1ySZ6m3I2x4nQT-29" source="zUg3-L1ySZ6m3I2x4nQT-31" target="zUg3-L1ySZ6m3I2x4nQT-38">
          <mxGeometry relative="1" as="geometry" />
        </mxCell>
        <mxCell id="zUg3-L1ySZ6m3I2x4nQT-47" value="«includes»" style="edgeLabel;html=1;align=center;verticalAlign=middle;resizable=0;points=[];" vertex="1" connectable="0" parent="zUg3-L1ySZ6m3I2x4nQT-46">
          <mxGeometry x="-0.1413" y="1" relative="1" as="geometry">
            <mxPoint as="offset" />
          </mxGeometry>
        </mxCell>
        <mxCell id="zUg3-L1ySZ6m3I2x4nQT-31" value="Ligar BGate" style="ellipse;whiteSpace=wrap;html=1;" vertex="1" parent="zUg3-L1ySZ6m3I2x4nQT-29">
          <mxGeometry x="170" y="30" width="120" height="80" as="geometry" />
        </mxCell>
        <mxCell id="zUg3-L1ySZ6m3I2x4nQT-39" style="rounded=0;orthogonalLoop=1;jettySize=auto;html=1;exitX=1;exitY=0.5;exitDx=0;exitDy=0;entryX=0;entryY=0.5;entryDx=0;entryDy=0;endArrow=open;endFill=0;dashed=1;" edge="1" parent="zUg3-L1ySZ6m3I2x4nQT-29" source="zUg3-L1ySZ6m3I2x4nQT-32" target="zUg3-L1ySZ6m3I2x4nQT-38">
          <mxGeometry relative="1" as="geometry" />
        </mxCell>
        <mxCell id="zUg3-L1ySZ6m3I2x4nQT-43" value="«includes»" style="edgeLabel;html=1;align=center;verticalAlign=middle;resizable=0;points=[];" vertex="1" connectable="0" parent="zUg3-L1ySZ6m3I2x4nQT-39">
          <mxGeometry x="0.0517" y="-1" relative="1" as="geometry">
            <mxPoint as="offset" />
          </mxGeometry>
        </mxCell>
        <mxCell id="zUg3-L1ySZ6m3I2x4nQT-32" value="Entrar em modo operacional" style="ellipse;whiteSpace=wrap;html=1;" vertex="1" parent="zUg3-L1ySZ6m3I2x4nQT-29">
          <mxGeometry x="120" y="270" width="120" height="80" as="geometry" />
        </mxCell>
        <mxCell id="zUg3-L1ySZ6m3I2x4nQT-49" style="rounded=0;orthogonalLoop=1;jettySize=auto;html=1;entryX=0;entryY=0;entryDx=0;entryDy=0;endArrow=open;endFill=0;dashed=1;" edge="1" parent="zUg3-L1ySZ6m3I2x4nQT-29" source="zUg3-L1ySZ6m3I2x4nQT-35" target="zUg3-L1ySZ6m3I2x4nQT-38">
          <mxGeometry relative="1" as="geometry" />
        </mxCell>
        <mxCell id="zUg3-L1ySZ6m3I2x4nQT-71" value="«includes»" style="edgeLabel;html=1;align=center;verticalAlign=middle;resizable=0;points=[];" vertex="1" connectable="0" parent="zUg3-L1ySZ6m3I2x4nQT-49">
          <mxGeometry x="-0.1904" y="3" relative="1" as="geometry">
            <mxPoint as="offset" />
          </mxGeometry>
        </mxCell>
        <mxCell id="zUg3-L1ySZ6m3I2x4nQT-35" value="Entrar em modo inoperacional" style="ellipse;whiteSpace=wrap;html=1;" vertex="1" parent="zUg3-L1ySZ6m3I2x4nQT-29">
          <mxGeometry x="210" y="190" width="120" height="80" as="geometry" />
        </mxCell>
        <mxCell id="zUg3-L1ySZ6m3I2x4nQT-40" style="rounded=0;orthogonalLoop=1;jettySize=auto;html=1;exitX=0.5;exitY=0;exitDx=0;exitDy=0;entryX=0.5;entryY=1;entryDx=0;entryDy=0;endArrow=open;endFill=0;dashed=1;" edge="1" parent="zUg3-L1ySZ6m3I2x4nQT-29" source="zUg3-L1ySZ6m3I2x4nQT-37" target="zUg3-L1ySZ6m3I2x4nQT-38">
          <mxGeometry relative="1" as="geometry" />
        </mxCell>
        <mxCell id="zUg3-L1ySZ6m3I2x4nQT-42" value="«includes»" style="edgeLabel;html=1;align=center;verticalAlign=middle;resizable=0;points=[];" vertex="1" connectable="0" parent="zUg3-L1ySZ6m3I2x4nQT-40">
          <mxGeometry x="0.0879" y="2" relative="1" as="geometry">
            <mxPoint as="offset" />
          </mxGeometry>
        </mxCell>
        <mxCell id="zUg3-L1ySZ6m3I2x4nQT-37" value="Leitura Recebida" style="ellipse;whiteSpace=wrap;html=1;" vertex="1" parent="zUg3-L1ySZ6m3I2x4nQT-29">
          <mxGeometry x="450" y="470" width="120" height="80" as="geometry" />
        </mxCell>
        <mxCell id="zUg3-L1ySZ6m3I2x4nQT-38" value="Informar evento ocorrido" style="ellipse;whiteSpace=wrap;html=1;" vertex="1" parent="zUg3-L1ySZ6m3I2x4nQT-29">
          <mxGeometry x="450" y="330" width="120" height="80" as="geometry" />
        </mxCell>
        <mxCell id="zUg3-L1ySZ6m3I2x4nQT-44" value="&lt;div&gt;Desligar BGate&lt;/div&gt;" style="ellipse;whiteSpace=wrap;html=1;" vertex="1" parent="zUg3-L1ySZ6m3I2x4nQT-29">
          <mxGeometry x="70" y="110" width="120" height="80" as="geometry" />
        </mxCell>
        <mxCell id="zUg3-L1ySZ6m3I2x4nQT-54" value="Abrir portas" style="ellipse;whiteSpace=wrap;html=1;" vertex="1" parent="zUg3-L1ySZ6m3I2x4nQT-29">
          <mxGeometry x="140" y="570" width="120" height="80" as="geometry" />
        </mxCell>
        <mxCell id="zUg3-L1ySZ6m3I2x4nQT-57" value="Ativar passagem livre" style="ellipse;whiteSpace=wrap;html=1;" vertex="1" parent="zUg3-L1ySZ6m3I2x4nQT-29">
          <mxGeometry x="10" y="400" width="120" height="80" as="geometry" />
        </mxCell>
        <mxCell id="zUg3-L1ySZ6m3I2x4nQT-58" value="Ativar passagem controlada" style="ellipse;whiteSpace=wrap;html=1;" vertex="1" parent="zUg3-L1ySZ6m3I2x4nQT-29">
          <mxGeometry x="70" y="480" width="120" height="80" as="geometry" />
        </mxCell>
        <mxCell id="zUg3-L1ySZ6m3I2x4nQT-62" value="Controlar funcionamento da câmera" style="ellipse;whiteSpace=wrap;html=1;" vertex="1" parent="zUg3-L1ySZ6m3I2x4nQT-29">
          <mxGeometry x="170" y="840" width="120" height="80" as="geometry" />
        </mxCell>
        <mxCell id="zUg3-L1ySZ6m3I2x4nQT-63" value="Emitir som&lt;div&gt;&lt;br&gt;&lt;/div&gt;" style="ellipse;whiteSpace=wrap;html=1;" vertex="1" parent="zUg3-L1ySZ6m3I2x4nQT-29">
          <mxGeometry x="250" y="750" width="120" height="80" as="geometry" />
        </mxCell>
        <mxCell id="zUg3-L1ySZ6m3I2x4nQT-64" value="Obter registo guardado" style="ellipse;whiteSpace=wrap;html=1;" vertex="1" parent="zUg3-L1ySZ6m3I2x4nQT-29">
          <mxGeometry x="35" y="880" width="120" height="80" as="geometry" />
        </mxCell>
        <mxCell id="zUg3-L1ySZ6m3I2x4nQT-65" value="Obter agregado de eventos" style="ellipse;whiteSpace=wrap;html=1;" vertex="1" parent="zUg3-L1ySZ6m3I2x4nQT-29">
          <mxGeometry x="200" y="660" width="120" height="80" as="geometry" />
        </mxCell>
        <mxCell id="zUg3-L1ySZ6m3I2x4nQT-33" style="rounded=0;orthogonalLoop=1;jettySize=auto;html=1;exitX=0.5;exitY=0.5;exitDx=0;exitDy=0;exitPerimeter=0;entryX=0;entryY=0.5;entryDx=0;entryDy=0;endArrow=none;endFill=0;" edge="1" parent="1" source="zUg3-L1ySZ6m3I2x4nQT-30" target="zUg3-L1ySZ6m3I2x4nQT-31">
          <mxGeometry relative="1" as="geometry" />
        </mxCell>
        <mxCell id="zUg3-L1ySZ6m3I2x4nQT-45" style="rounded=0;orthogonalLoop=1;jettySize=auto;html=1;exitX=0.5;exitY=0.5;exitDx=0;exitDy=0;exitPerimeter=0;entryX=0;entryY=0.5;entryDx=0;entryDy=0;endArrow=none;endFill=0;" edge="1" parent="1" source="zUg3-L1ySZ6m3I2x4nQT-30" target="zUg3-L1ySZ6m3I2x4nQT-44">
          <mxGeometry relative="1" as="geometry" />
        </mxCell>
        <mxCell id="zUg3-L1ySZ6m3I2x4nQT-48" style="rounded=0;orthogonalLoop=1;jettySize=auto;html=1;exitX=0.5;exitY=0.5;exitDx=0;exitDy=0;exitPerimeter=0;entryX=0;entryY=0.5;entryDx=0;entryDy=0;endArrow=none;endFill=0;" edge="1" parent="1" source="zUg3-L1ySZ6m3I2x4nQT-30" target="zUg3-L1ySZ6m3I2x4nQT-35">
          <mxGeometry relative="1" as="geometry" />
        </mxCell>
        <mxCell id="zUg3-L1ySZ6m3I2x4nQT-30" value="Operador" style="shape=umlActor;verticalLabelPosition=bottom;verticalAlign=top;html=1;outlineConnect=0;" vertex="1" parent="1">
          <mxGeometry x="980" y="210" width="30" height="60" as="geometry" />
        </mxCell>
        <mxCell id="zUg3-L1ySZ6m3I2x4nQT-72" style="rounded=0;orthogonalLoop=1;jettySize=auto;html=1;exitX=0.5;exitY=0.5;exitDx=0;exitDy=0;exitPerimeter=0;entryX=1;entryY=0.5;entryDx=0;entryDy=0;endArrow=none;endFill=0;" edge="1" parent="1" source="zUg3-L1ySZ6m3I2x4nQT-36" target="zUg3-L1ySZ6m3I2x4nQT-37">
          <mxGeometry relative="1" as="geometry" />
        </mxCell>
        <mxCell id="zUg3-L1ySZ6m3I2x4nQT-36" value="Visitante" style="shape=umlActor;verticalLabelPosition=bottom;verticalAlign=top;html=1;outlineConnect=0;" vertex="1" parent="1">
          <mxGeometry x="1860" y="560" width="30" height="60" as="geometry" />
        </mxCell>
        <mxCell id="zUg3-L1ySZ6m3I2x4nQT-51" style="rounded=0;orthogonalLoop=1;jettySize=auto;html=1;exitX=0.5;exitY=0.5;exitDx=0;exitDy=0;exitPerimeter=0;entryX=0;entryY=0.5;entryDx=0;entryDy=0;endArrow=none;endFill=0;" edge="1" parent="1" source="zUg3-L1ySZ6m3I2x4nQT-50" target="zUg3-L1ySZ6m3I2x4nQT-35">
          <mxGeometry relative="1" as="geometry" />
        </mxCell>
        <mxCell id="zUg3-L1ySZ6m3I2x4nQT-52" style="rounded=0;orthogonalLoop=1;jettySize=auto;html=1;exitX=0.5;exitY=0.5;exitDx=0;exitDy=0;exitPerimeter=0;endArrow=none;endFill=0;" edge="1" parent="1" source="zUg3-L1ySZ6m3I2x4nQT-50" target="zUg3-L1ySZ6m3I2x4nQT-32">
          <mxGeometry relative="1" as="geometry" />
        </mxCell>
        <mxCell id="zUg3-L1ySZ6m3I2x4nQT-53" style="rounded=0;orthogonalLoop=1;jettySize=auto;html=1;exitX=0.5;exitY=0.5;exitDx=0;exitDy=0;exitPerimeter=0;entryX=0;entryY=1;entryDx=0;entryDy=0;endArrow=none;endFill=0;" edge="1" parent="1" source="zUg3-L1ySZ6m3I2x4nQT-50" target="zUg3-L1ySZ6m3I2x4nQT-38">
          <mxGeometry relative="1" as="geometry" />
        </mxCell>
        <mxCell id="zUg3-L1ySZ6m3I2x4nQT-56" style="rounded=0;orthogonalLoop=1;jettySize=auto;html=1;exitX=0.5;exitY=0.5;exitDx=0;exitDy=0;exitPerimeter=0;entryX=0;entryY=0.5;entryDx=0;entryDy=0;endArrow=none;endFill=0;" edge="1" parent="1" source="zUg3-L1ySZ6m3I2x4nQT-50" target="zUg3-L1ySZ6m3I2x4nQT-54">
          <mxGeometry relative="1" as="geometry" />
        </mxCell>
        <mxCell id="zUg3-L1ySZ6m3I2x4nQT-59" style="rounded=0;orthogonalLoop=1;jettySize=auto;html=1;exitX=0.5;exitY=0.5;exitDx=0;exitDy=0;exitPerimeter=0;entryX=0;entryY=0.5;entryDx=0;entryDy=0;endArrow=none;endFill=0;" edge="1" parent="1" source="zUg3-L1ySZ6m3I2x4nQT-50" target="zUg3-L1ySZ6m3I2x4nQT-58">
          <mxGeometry relative="1" as="geometry" />
        </mxCell>
        <mxCell id="zUg3-L1ySZ6m3I2x4nQT-60" style="rounded=0;orthogonalLoop=1;jettySize=auto;html=1;exitX=0.5;exitY=0.5;exitDx=0;exitDy=0;exitPerimeter=0;entryX=0;entryY=0.5;entryDx=0;entryDy=0;endArrow=none;endFill=0;" edge="1" parent="1" source="zUg3-L1ySZ6m3I2x4nQT-50" target="zUg3-L1ySZ6m3I2x4nQT-57">
          <mxGeometry relative="1" as="geometry" />
        </mxCell>
        <mxCell id="zUg3-L1ySZ6m3I2x4nQT-74" style="rounded=0;orthogonalLoop=1;jettySize=auto;html=1;exitX=0.5;exitY=0.5;exitDx=0;exitDy=0;exitPerimeter=0;entryX=0;entryY=0.5;entryDx=0;entryDy=0;endArrow=none;endFill=0;" edge="1" parent="1" source="zUg3-L1ySZ6m3I2x4nQT-50" target="zUg3-L1ySZ6m3I2x4nQT-65">
          <mxGeometry relative="1" as="geometry" />
        </mxCell>
        <mxCell id="zUg3-L1ySZ6m3I2x4nQT-75" style="rounded=0;orthogonalLoop=1;jettySize=auto;html=1;exitX=0.5;exitY=0.5;exitDx=0;exitDy=0;exitPerimeter=0;entryX=0;entryY=0.5;entryDx=0;entryDy=0;endArrow=none;endFill=0;" edge="1" parent="1" source="zUg3-L1ySZ6m3I2x4nQT-50" target="zUg3-L1ySZ6m3I2x4nQT-63">
          <mxGeometry relative="1" as="geometry" />
        </mxCell>
        <mxCell id="zUg3-L1ySZ6m3I2x4nQT-76" style="rounded=0;orthogonalLoop=1;jettySize=auto;html=1;exitX=0.5;exitY=0.5;exitDx=0;exitDy=0;exitPerimeter=0;entryX=0;entryY=0;entryDx=0;entryDy=0;endArrow=none;endFill=0;" edge="1" parent="1" source="zUg3-L1ySZ6m3I2x4nQT-50" target="zUg3-L1ySZ6m3I2x4nQT-62">
          <mxGeometry relative="1" as="geometry" />
        </mxCell>
        <mxCell id="zUg3-L1ySZ6m3I2x4nQT-77" style="rounded=0;orthogonalLoop=1;jettySize=auto;html=1;exitX=0.5;exitY=0.5;exitDx=0;exitDy=0;exitPerimeter=0;entryX=0;entryY=0;entryDx=0;entryDy=0;endArrow=none;endFill=0;" edge="1" parent="1" source="zUg3-L1ySZ6m3I2x4nQT-50" target="zUg3-L1ySZ6m3I2x4nQT-64">
          <mxGeometry relative="1" as="geometry" />
        </mxCell>
        <mxCell id="zUg3-L1ySZ6m3I2x4nQT-50" value="Cliente" style="shape=umlActor;verticalLabelPosition=bottom;verticalAlign=top;html=1;outlineConnect=0;" vertex="1" parent="1">
          <mxGeometry x="980" y="420" width="30" height="60" as="geometry" />
        </mxCell>
      </root>
    </mxGraphModel>
  </diagram>
</mxfile>
